<?xml version="1.0" encoding="UTF-8"?>
<svg width="16px" height="16px" viewBox="0 0 16 16" version="1.1" xmlns="http://www.w3.org/2000/svg" xmlns:xlink="http://www.w3.org/1999/xlink">
    <!-- Generator: Sketch 49.3 (51167) - http://www.bohemiancoding.com/sketch -->
    <title>icon-db-from-share</title>
    <desc>Created with Sketch.</desc>
    <defs></defs>
    <g id="icon-db-from-share" stroke="none" stroke-width="1" fill="none" fill-rule="evenodd">
        <g id="Group-12" transform="translate(0.000000, 1.000000)" fill="#FFFFFF">
            <path d="M8.003,11.6666 C6.328,11.6666 4.813,11.3646 3.659,10.8616 L2.589,11.5776 C3.215,12.7026 5.399,13.5336 8.003,13.5336 C11.095,13.5336 13.603,12.3636 13.603,10.9196 L13.603,10.1206 C13.29,10.3836 12.906,10.6156 12.471,10.8146 C11.303,11.3486 9.735,11.6666 8.003,11.6666" id="Fill-2"></path>
            <path d="M8.003,5.6933 C11.096,5.6933 13.603,4.5233 13.603,3.0803 C13.603,1.6363 11.096,0.4663 8.003,0.4663 C4.91,0.4663 2.403,1.6363 2.403,3.0803 C2.403,4.5233 4.91,5.6933 8.003,5.6933" id="Fill-4"></path>
            <path d="M8.003,6.44 C6.271,6.44 4.703,6.122 3.535,5.588 C3.438,5.544 3.354,5.492 3.262,5.445 L7.501,8.283 C7.67,8.29 7.831,8.307 8.003,8.307 C9.654,8.307 11.148,7.993 12.198,7.513 C12.661,7.281 13.295,6.958 13.603,6.422 L13.603,4.9 C13.29,5.163 12.906,5.389 12.471,5.588 C11.303,6.122 9.735,6.44 8.003,6.44" id="Fill-6"></path>
            <path d="M8.003,9.0533 C7.482,9.0533 6.983,9.0163 6.498,8.9613 L4.415,10.3553 C5.402,10.6993 6.641,10.9203 8.003,10.9203 C9.654,10.9203 11.148,10.6063 12.198,10.1263 C12.661,9.8943 13.295,9.5713 13.603,9.0353 L13.603,7.5073 C13.29,7.7703 12.906,8.0023 12.471,8.2013 C11.303,8.7353 9.735,9.0533 8.003,9.0533" id="Fill-8"></path>
            <polygon id="Fill-10" points="5.7085 8.2858 2.0005 5.8038 2.0005 7.0448 0.0005 7.0128 0.0005 9.5268 2.0005 9.5268 2.0005 10.7678"></polygon>
        </g>
    </g>
</svg>