<?xml version="1.0" encoding="UTF-8"?>
<svg width="16px" height="16px" viewBox="0 0 16 16" version="1.1" xmlns="http://www.w3.org/2000/svg" xmlns:xlink="http://www.w3.org/1999/xlink">
    <!-- Generator: Sketch 49.3 (51167) - http://www.bohemiancoding.com/sketch -->
    <title>icon-table</title>
    <desc>Created with Sketch.</desc>
    <defs></defs>
    <g id="icon-table" stroke="none" stroke-width="1" fill="none" fill-rule="evenodd">
        <path d="M11.6633,12.296 L9.3463,12.296 L9.3463,9.865 L12.1183,9.865 L12.1183,11.841 C12.1183,12.097 11.9193,12.296 11.6633,12.296 Z M1.8953,11.855 L1.8953,9.865 L4.7113,9.865 L4.7113,12.296 L2.3363,12.296 C2.0943,12.296 1.8953,12.097 1.8953,11.855 Z M2.3363,3.396 L11.6633,3.396 C11.9053,3.396 12.1043,3.595 12.1043,3.836 L12.1043,5.713 L1.8953,5.713 L1.8953,3.836 C1.8953,3.595 2.0943,3.396 2.3363,3.396 Z M9.3313,6.623 L12.1183,6.623 L12.1183,8.983 L9.3463,8.983 L9.3463,6.723 C9.3463,6.68 9.3463,6.652 9.3313,6.623 Z M1.8953,6.623 L4.7253,6.623 C4.7113,6.652 4.7113,6.694 4.7113,6.723 L4.7113,8.969 L1.8953,8.969 L1.8953,6.623 Z M5.6063,12.296 L8.4503,12.296 L8.4503,9.865 L5.6063,9.865 L5.6063,12.296 Z M5.6063,8.969 L5.6063,6.723 C5.6063,6.694 5.6063,6.652 5.5923,6.623 L8.4643,6.623 C8.4503,6.652 8.4503,6.694 8.4503,6.723 L8.4503,8.969 L5.6063,8.969 Z M11.6633,2.5 L2.3363,2.5 C1.5973,2.5 1.0003,3.097 1.0003,3.836 L1.0003,11.841 C1.0003,12.58 1.5973,13.178 2.3363,13.178 L11.6633,13.178 C12.4023,13.178 12.9993,12.58 12.9993,11.841 L12.9993,3.836 C13.0143,3.097 12.4023,2.5 11.6633,2.5 Z" id="Fill-2" fill="#FFFFFF"></path>
    </g>
</svg>